<?xml version="1.0" encoding="UTF-8" standalone="no" ?>
<!DOCTYPE svg PUBLIC "-//W3C//DTD SVG 1.1//EN" "http://www.w3.org/Graphics/SVG/1.1/DTD/svg11.dtd">
<svg xmlns="http://www.w3.org/2000/svg" xmlns:xlink="http://www.w3.org/1999/xlink" version="1.1" width="40" height="40" viewBox="0 0 40 40" xml:space="preserve">
<desc>Created with Fabric.js 5.2.4</desc>
<defs>
</defs>
<g transform="matrix(1 0 0 1 20 20)" id="534a694f-9b29-4762-98a6-61fc50a0eb0e"  >
<rect style="stroke: none; stroke-width: 1; stroke-dasharray: none; stroke-linecap: butt; stroke-dashoffset: 0; stroke-linejoin: miter; stroke-miterlimit: 4; fill: rgb(255,255,255); fill-rule: nonzero; opacity: 1; visibility: hidden;" vector-effect="non-scaling-stroke"  x="-20" y="-20" rx="0" ry="0" width="40" height="40" />
</g>
<g transform="matrix(Infinity NaN NaN Infinity 0 0)" id="84e51a9a-314f-47a2-ae21-ea1390517e1b"  >
</g>
<g transform="matrix(0.04 0 0 0.04 20 20)" id="2c953289-4454-4ad9-a690-b37ee01f89b9"  >
<path style="stroke: rgb(0,0,0); stroke-width: 0; stroke-dasharray: none; stroke-linecap: butt; stroke-dashoffset: 0; stroke-linejoin: miter; stroke-miterlimit: 4; fill: rgb(0,0,0); fill-rule: nonzero; opacity: 1;" vector-effect="non-scaling-stroke"  transform=" translate(-437.47, -500.03)" d="M 0 281.296 L 0 212.94099999999997 Q 1.953 175.83399999999997 29.295 150.44499999999996 Q 56.637 125.05599999999995 93.744 125.05599999999997 L 187.488 125.05599999999997 L 187.488 93.80799999999996 Q 187.488 54.74799999999996 214.82999999999998 27.405999999999963 Q 242.17199999999997 0.06399999999996453 281.23199999999997 0.06399999999996453 L 593.712 0.06399999999996453 Q 632.7719999999999 0.06399999999996453 660.114 27.405999999999963 Q 687.4560000000001 54.74799999999996 687.456 93.80799999999996 L 687.456 125.05599999999997 L 781.2 125.05599999999997 Q 818.307 125.05599999999997 845.649 150.44499999999996 Q 872.991 175.83399999999995 874.944 212.94099999999997 L 874.944 281.296 Q 874.944 306.685 856.391 325.239 Q 837.838 343.79299999999995 812.448 343.792 L 812.448 875.008 Q 812.448 927.739 776.318 963.87 Q 740.188 1000.001 687.456 1000 L 187.488 1000 Q 134.757 1000 98.626 963.87 Q 62.495000000000005 927.74 62.496 875.008 L 62.496 343.79200000000003 Q 37.107 343.79200000000003 18.553000000000004 325.23900000000003 Q -0.000999999999990564 306.68600000000004 3.552713678800501e-15 281.29600000000005 z M 62.496 281.296 L 812.448 281.296 L 812.448 218.79999999999998 Q 812.448 205.129 803.659 196.33999999999997 Q 794.87 187.55099999999996 781.199 187.551 L 93.74299999999994 187.551 Q 80.07199999999995 187.551 71.28299999999993 196.33999999999997 Q 62.493999999999915 205.12899999999996 62.49399999999993 218.79999999999998 L 62.49399999999993 281.296 z M 124.992 875.008 Q 124.992 900.397 143.54500000000002 918.951 Q 162.098 937.505 187.488 937.504 L 687.456 937.504 Q 712.845 937.504 731.399 918.951 Q 749.953 900.398 749.952 875.008 L 749.952 343.79200000000003 L 124.99199999999996 343.79200000000003 L 124.99199999999996 875.008 z M 187.488 843.76 L 187.488 437.536 Q 187.488 423.865 196.277 415.076 Q 205.06599999999997 406.28700000000003 218.737 406.28700000000003 L 281.233 406.28700000000003 Q 294.904 406.28700000000003 303.693 415.076 Q 312.48199999999997 423.865 312.48199999999997 437.536 L 312.48199999999997 843.76 Q 312.48199999999997 857.431 303.693 866.22 Q 294.904 875.009 281.233 875.009 L 218.737 875.009 Q 205.066 875.009 196.277 866.22 Q 187.48799999999997 857.431 187.488 843.76 z M 218.736 843.76 L 281.23199999999997 843.76 L 281.23199999999997 437.536 L 218.73599999999996 437.536 L 218.73599999999996 843.76 z M 249.98399999999998 125.05600000000004 L 624.96 125.05600000000004 L 624.96 93.80800000000004 Q 624.96 80.13700000000003 616.171 71.34800000000004 Q 607.3820000000001 62.559000000000054 593.711 62.55900000000004 L 281.231 62.55900000000004 Q 267.56 62.55900000000004 258.771 71.34800000000004 Q 249.98200000000003 80.13700000000004 249.98200000000003 93.80800000000005 L 249.98200000000003 125.05600000000005 z M 374.976 843.76 L 374.976 437.536 Q 374.976 423.865 383.765 415.076 Q 392.554 406.28700000000003 406.22499999999997 406.28700000000003 L 468.72099999999995 406.28700000000003 Q 482.39199999999994 406.28700000000003 491.1809999999999 415.076 Q 499.9699999999999 423.865 499.9699999999999 437.536 L 499.9699999999999 843.76 Q 499.9699999999999 857.431 491.1809999999999 866.22 Q 482.39199999999994 875.009 468.72099999999995 875.009 L 406.22499999999997 875.009 Q 392.554 875.009 383.765 866.22 Q 374.976 857.431 374.976 843.76 z M 406.224 843.76 L 468.71999999999997 843.76 L 468.71999999999997 437.536 L 406.224 437.536 L 406.224 843.76 z M 562.4639999999999 843.76 L 562.4639999999999 437.536 Q 562.4639999999999 423.865 571.2529999999999 415.076 Q 580.0419999999999 406.28700000000003 593.713 406.28700000000003 L 656.209 406.28700000000003 Q 669.88 406.28700000000003 678.669 415.076 Q 687.458 423.865 687.458 437.536 L 687.458 843.76 Q 687.458 857.431 678.669 866.22 Q 669.88 875.009 656.209 875.009 L 593.713 875.009 Q 580.0419999999999 875.009 571.2529999999999 866.22 Q 562.4639999999999 857.431 562.4639999999999 843.76 z M 593.712 843.76 L 656.208 843.76 L 656.208 437.536 L 593.712 437.536 L 593.712 843.76 z" stroke-linecap="round" />
</g>
</svg>